<svg width="68" height="14" viewBox="0 0 68 14" fill="none" xmlns="http://www.w3.org/2000/svg">
<path d="M5.219 13.204C4.34633 13.204 3.57567 13.0567 2.907 12.762C2.23833 12.456 1.71133 12.0253 1.326 11.47C0.940667 10.9033 0.742333 10.2177 0.731 9.413H3.026C3.04867 9.96833 3.247 10.4387 3.621 10.824C4.00633 11.198 4.53333 11.385 5.202 11.385C5.78 11.385 6.239 11.249 6.579 10.977C6.919 10.6937 7.089 10.3197 7.089 9.855C7.089 9.36767 6.936 8.988 6.63 8.716C6.33533 8.444 5.93867 8.223 5.44 8.053C4.94133 7.883 4.40867 7.70167 3.842 7.509C2.924 7.19167 2.22133 6.78367 1.734 6.285C1.258 5.78633 1.02 5.12333 1.02 4.296C1.00867 3.59333 1.173 2.99267 1.513 2.494C1.86433 1.984 2.34033 1.593 2.941 1.321C3.54167 1.03767 4.233 0.896 5.015 0.896C5.80833 0.896 6.50533 1.03767 7.106 1.321C7.718 1.60433 8.194 2.001 8.534 2.511C8.88533 3.021 9.07233 3.62733 9.095 4.33H6.766C6.75467 3.91067 6.59033 3.54233 6.273 3.225C5.967 2.89633 5.53633 2.732 4.981 2.732C4.505 2.72067 4.10267 2.83967 3.774 3.089C3.45667 3.327 3.298 3.67833 3.298 4.143C3.298 4.53967 3.42267 4.857 3.672 5.095C3.92133 5.32167 4.26133 5.51433 4.692 5.673C5.12267 5.83167 5.61567 6.00167 6.171 6.183C6.76033 6.387 7.29867 6.625 7.786 6.897C8.27333 7.169 8.66433 7.53167 8.959 7.985C9.25367 8.427 9.401 8.99933 9.401 9.702C9.401 10.3253 9.24233 10.9033 8.925 11.436C8.60767 11.9687 8.13733 12.3993 7.514 12.728C6.89067 13.0453 6.12567 13.204 5.219 13.204ZM11.9796 13V1.1H19.7486V2.851H14.1556V6.115H19.2386V7.815H14.1556V11.249H19.7486V13H11.9796ZM22.4877 13V1.1H30.2567V2.851H24.6637V6.115H29.7467V7.815H24.6637V11.249H30.2567V13H22.4877ZM36.9616 13L41.3136 1.1H43.7616L48.1136 13H45.8016L44.8496 10.246H40.2086L39.2396 13H36.9616ZM40.8036 8.546H44.2546L42.5206 3.599L40.8036 8.546ZM50.3265 13V1.1H52.5025V11.3H57.7725V13H50.3265ZM60.3698 13V1.1H62.5458V11.3H67.8158V13H60.3698Z" fill="#B3B3B3"/>
</svg>
